<?xml version="1.0" encoding="UTF-8"?>
<svg width="71px" height="43px" viewBox="0 0 71 43" version="1.1" xmlns="http://www.w3.org/2000/svg" xmlns:xlink="http://www.w3.org/1999/xlink">
    <!-- Generator: Sketch 61.2 (89653) - https://sketch.com -->
    <title>Shape</title>
    <desc>Created with Sketch.</desc>
    <g id="Page-1" stroke="none" stroke-width="1" fill="none" fill-rule="evenodd">
        <g id="Desktop---Home-V1.5" transform="translate(-498.000000, -2699.000000)">
            <g id="Logo-Wall" transform="translate(0.000000, 2650.000000)">
                <rect id="Rectangle" opacity="0.896600632" x="0" y="0" width="1440" height="140"></rect>
                <g id="Logos" transform="translate(165.000000, 35.000000)" fill="#FFFFFF" fill-rule="nonzero">
                    <g id="aws" transform="translate(333.400000, 14.000000)">
                        <path d="M19.7015601,15.2897036 C19.6229329,17.7631825 20.8591264,18.8585023 20.8897036,19.5541342 C20.860166,19.8414178 20.693302,20.0965977 20.4419657,20.2388456 L19.0441498,21.2173167 C18.863256,21.3441293 18.6500127,21.4168517 18.4293292,21.4269891 C18.3823713,21.424805 17.5349454,21.6268331 16.1928237,18.6302652 C14.5334351,20.701603 12.0092523,21.8889083 9.35553822,21.8463339 C7.57769111,21.9435257 2.75959438,20.8372855 3.0074883,15.7079563 C2.83385335,11.5276131 6.72698908,8.93073323 10.7533541,9.15023401 C11.5287051,9.1524181 13.1121685,9.19063963 15.8848674,9.8349454 L15.8848674,8.12917317 C16.1786271,5.23962559 14.2795632,2.99765991 10.9914197,3.33400936 C10.7293292,3.3351014 8.87285491,3.27940718 5.98549142,4.43806552 C5.18174727,4.80717629 5.07909516,4.74602184 4.81154446,4.74602184 C4.00234009,4.74602184 4.33541342,2.40031201 4.49048362,2.10327613 C5.05943838,1.40436817 8.40655226,0.099375975 11.6914197,0.117940718 C13.8877904,-0.0763040609 16.0723845,0.601551681 17.7730109,2.0049922 C19.1699569,3.56755722 19.8671304,5.63343194 19.7026521,7.72293292 L19.7015601,15.2897036 L19.7015601,15.2897036 Z M10.2641186,18.8268331 C13.8056162,18.775507 15.3049922,16.6460218 15.6468019,15.499376 C15.9154446,14.4018721 15.8706708,13.7073323 15.8706708,12.5071763 C14.8146646,12.2538222 13.2945398,11.9775351 11.550546,11.975351 C9.89609984,11.850858 6.87441498,12.5901716 6.99235569,15.4982839 C6.85694228,17.3318253 8.20670827,18.9273011 10.2641186,18.8268331 L10.2641186,18.8268331 Z M28.9293292,21.3439938 C28.0709828,21.4226209 27.6712949,20.8132605 27.5446178,20.2115445 L22.1062402,2.23104524 C22.000312,1.9274571 21.9304212,1.61404056 21.8965679,1.29407176 C21.8547957,1.01938663 22.0434531,0.762793032 22.3180967,0.72074883 C22.3443058,0.716380655 22.0854914,0.72074883 24.7478939,0.72074883 C25.7067083,0.624648986 26.0190328,1.37925117 26.1184087,1.85319813 L30.0191888,17.2324493 L33.6404056,1.85319813 C33.6982839,1.50156006 33.9614665,0.644305772 35.0382215,0.734945398 L36.9121685,0.734945398 C37.149142,0.715288612 38.125429,0.680343214 38.2968799,1.8673947 L41.9464899,17.4432137 L45.9728549,1.8673947 C46.025273,1.62932917 46.2698908,0.62574103 47.3575663,0.734945398 L49.5110764,0.734945398 C49.6039002,0.72074883 50.1826833,0.64648986 50.0843994,1.67191888 C50.0374415,1.87394696 50.4567863,0.507800312 44.323869,20.225741 C44.1982839,20.8274571 43.7975039,21.4368175 42.9391576,21.3581903 L40.8981279,21.3581903 C39.7034321,21.4837754 39.5319813,20.3032761 39.5134165,20.1842434 L35.8921997,5.20904836 L32.3124805,20.1689548 C32.2950078,20.2879875 32.1235569,21.4684867 30.9277691,21.3429017 L28.9293292,21.3429017 L28.9293292,21.3439938 Z M58.7945398,21.9588144 C58.1524181,21.9599064 55.0903276,21.926053 52.5305772,20.6166927 C52.0091037,20.3958995 51.6723319,19.8823332 51.6776281,19.3160686 L51.6776281,18.1421217 C51.6776281,17.2193448 52.3547582,17.3886115 52.6419657,17.498908 C53.7383775,17.9422777 54.4416537,18.2786271 55.7881435,18.5472699 C59.7904836,19.3695788 61.550858,18.2960998 61.9822153,18.0580343 C63.4182527,17.2051482 63.5318253,15.2536661 62.5555382,14.2413417 C61.4110764,13.2814353 60.8650546,13.2453978 56.7535101,11.9480499 C56.2468019,11.8071763 51.9812793,10.4617785 51.9714509,6.2301092 C51.9048362,3.14617785 54.7070203,0.0950078003 59.5633385,0.119970792 C60.9469579,0.119032761 64.6336973,0.571138846 65.6318253,1.82589704 C65.7792512,2.05413417 65.8524181,2.32277691 65.8414977,2.59469579 L65.8414977,3.69875195 C65.8414977,4.18361934 65.6645866,4.42605304 65.3096724,4.42605304 C64.4677067,4.33213729 62.973791,3.20624025 59.9411856,3.25210608 C59.1887676,3.21279251 55.5850234,3.35148206 55.7466459,5.97893916 C55.699688,8.04945398 58.6525741,8.82589704 58.9900156,8.91544462 C62.9716069,10.1134165 64.3028081,10.3121685 65.8829953,12.1457098 C67.7547582,14.575507 66.7457098,17.4202808 66.3580343,18.2 C64.274415,22.2940718 58.8862715,21.9609984 58.7945398,21.9588144 L58.7945398,21.9588144 Z M63.1845554,33.4099844 C55.5369735,39.0580343 44.4352574,42.0644306 34.9563183,42.0644306 C22.1663599,42.1487755 9.80743486,37.4458631 0.309048362,28.8801872 C-0.404056162,28.2369735 0.224960998,27.3556942 1.09204368,27.8460218 C11.6285757,33.8731844 23.5581434,37.0400464 35.6967239,37.0322933 C44.7614892,36.9836816 53.7273542,35.1447867 62.0794072,31.6212168 C63.3658346,31.075195 64.4567863,32.4730109 63.1845554,33.4099844 Z M66.3722309,29.774571 C65.3937598,28.5165367 59.8985959,29.1870515 57.4382215,29.4808112 C56.6967239,29.5648986 56.5711388,28.9216849 57.2427457,28.4466459 C61.6185647,25.3703588 68.8053042,26.2516381 69.6308892,27.2858034 C70.4553822,28.3199688 69.4070203,35.5209048 65.3107644,38.9608424 C64.6817473,39.4926677 64.0800312,39.2120125 64.3595944,38.5131045 C65.2812793,36.1925117 67.350702,31.0336973 66.3722309,29.774571 Z" id="Shape"></path>
                    </g>
                </g>
            </g>
        </g>
    </g>
</svg>