<?xml version="1.0" encoding="UTF-8"?>
<svg width="61px" height="70px" viewBox="0 0 61 70" version="1.1" xmlns="http://www.w3.org/2000/svg" xmlns:xlink="http://www.w3.org/1999/xlink">
    <!-- Generator: Sketch 61.2 (89653) - https://sketch.com -->
    <title>Shape</title>
    <desc>Created with Sketch.</desc>
    <g id="Page-1" stroke="none" stroke-width="1" fill="none" fill-rule="evenodd">
        <g id="Desktop---Home-V1.5" transform="translate(-272.000000, -2685.000000)">
            <g id="Logo-Wall" transform="translate(0.000000, 2650.000000)">
                <rect id="Rectangle" opacity="0.896600632" x="0" y="0" width="1440" height="140"></rect>
                <g id="Logos" transform="translate(165.000000, 35.000000)" fill="#FFFFFF" fill-rule="nonzero">
                    <g id="css3-alt" transform="translate(107.800000, 0.000000)">
                        <path d="M0,0 L5.453125,61.84375 L30,70 L54.546875,61.84375 L60,0 L0,0 Z M48.921875,12.5 L48.171875,19.890625 L30.15625,27.59375 L30.109375,27.609375 L47.53125,27.609375 L45.53125,50.515625 L30.1875,55 L14.75,50.4375 L13.75,38.890625 L21.390625,38.890625 L21.890625,44.875 L30.109375,46.953125 L38.65625,44.546875 L39.234375,34.921875 L13.25,34.84375 L13.25,34.828125 L13.21875,34.84375 L12.65625,27.609375 L30.171875,20.3125 L31.1875,19.890625 L11.984375,19.890625 L11.078125,12.5 L48.921875,12.5 Z" id="Shape"></path>
                    </g>
                </g>
            </g>
        </g>
    </g>
</svg>