<?xml version="1.0" encoding="UTF-8"?>
<svg width="71px" height="69px" viewBox="0 0 71 69" version="1.1" xmlns="http://www.w3.org/2000/svg" xmlns:xlink="http://www.w3.org/1999/xlink">
    <!-- Generator: Sketch 61.2 (89653) - https://sketch.com -->
    <title>Shape</title>
    <desc>Created with Sketch.</desc>
    <g id="Page-1" stroke="none" stroke-width="1" fill="none" fill-rule="evenodd">
        <g id="Desktop---Home-V1.5" transform="translate(-1087.000000, -2686.000000)">
            <g id="Logo-Wall" transform="translate(0.000000, 2650.000000)">
                <rect id="Rectangle" opacity="0.896600632" x="0" y="0" width="1440" height="140"></rect>
                <g id="Logos" transform="translate(165.000000, 35.000000)" fill="#FFFFFF" fill-rule="nonzero">
                    <g id="github" transform="translate(922.400000, 1.000000)">
                        <path d="M23.408587,54.9445676 C23.408587,55.2267688 23.0840556,55.4525297 22.6748639,55.4525297 C22.209232,55.4948599 21.8847007,55.269099 21.8847007,54.9445676 C21.8847007,54.6623665 22.209232,54.4366055 22.6184237,54.4366055 C23.0417255,54.3942753 23.408587,54.6200363 23.408587,54.9445676 Z M19.0203588,54.309615 C18.9215884,54.5918162 19.2037896,54.9163475 19.6270913,55.0010079 C19.9939528,55.1421084 20.4172546,55.0010079 20.5019149,54.7188067 C20.5865753,54.4366055 20.3184842,54.1120742 19.8951824,53.9850837 C19.5283209,53.8863132 19.1191292,54.0274138 19.0203588,54.309615 Z M25.2570046,54.069744 C24.8478129,54.1685144 24.5656118,54.4366055 24.6079419,54.7611369 C24.6502721,55.043338 25.0171336,55.2267688 25.4404354,55.1279984 C25.8496271,55.029228 26.1318283,54.7611369 26.0894981,54.4789357 C26.0471679,54.2108446 25.6661963,54.0274138 25.2570046,54.069744 Z M34.5414231,0 C14.970772,0 0,14.8578916 0,34.4285426 C0,50.0765975 9.8488208,63.4670429 23.9165491,68.1798025 C25.7226366,68.5043338 26.3575892,67.3896392 26.3575892,66.4724854 C26.3575892,65.5976618 26.315259,60.7720218 26.315259,57.8089095 C26.315259,57.8089095 16.4382181,59.9254183 14.3640395,53.6041121 C14.3640395,53.6041121 12.7554928,49.4980851 10.4414433,48.4398307 C10.4414433,48.4398307 7.21023987,46.2245515 10.6672042,46.2668817 C10.6672042,46.2668817 14.1806087,46.5490828 16.1136868,49.9072768 C19.2037896,55.3537593 24.382181,53.7875428 26.3999194,52.856279 C26.7244507,50.5986696 27.6416045,49.0324531 28.6575287,48.1011893 C20.770006,47.2263657 12.8119331,46.0834509 12.8119331,32.5095747 C12.8119331,28.6293086 13.8842975,26.6821205 16.1419069,24.1987503 C15.7750454,23.2815965 14.5756904,19.5001008 16.5087684,14.6180206 C19.4577706,13.7008668 26.2447087,18.4277363 26.2447087,18.4277363 C29.0667204,17.6375731 32.100383,17.2283814 35.1058254,17.2283814 C38.1112679,17.2283814 41.1449305,17.6375731 43.9669421,18.4277363 C43.9669421,18.4277363 50.7538803,13.6867567 53.7028825,14.6180206 C55.6359605,19.5142108 54.4366055,23.2815965 54.069744,24.1987503 C56.3273534,26.6962306 57.7101391,28.6434187 57.7101391,32.5095747 C57.7101391,46.1257811 49.3993147,47.2122556 41.511792,48.1011893 C42.8099174,49.2158839 43.9105019,51.3323927 43.9105019,54.6482564 C43.9105019,59.4033461 43.8681717,65.2872405 43.8681717,66.4442653 C43.8681717,67.3614191 44.5172344,68.4761137 46.3092119,68.1515823 C60.4192703,63.4670429 69.9858899,50.0765975 69.9858899,34.4285426 C69.9858899,14.8578916 54.1120742,0 34.5414231,0 Z M13.7149768,48.6655916 C13.5315461,48.8066922 13.5738762,49.1312235 13.8137472,49.3993147 C14.0395082,49.6250756 14.3640395,49.723846 14.5474703,49.5404152 C14.730901,49.3993147 14.6885709,49.0747833 14.4486999,48.8066922 C14.2229389,48.5809313 13.8984076,48.4821609 13.7149768,48.6655916 Z M12.1910905,47.5226769 C12.0923201,47.7061076 12.2334207,47.9318686 12.5156219,48.0729692 C12.7413828,48.2140697 13.023584,48.1717396 13.1223544,47.9741988 C13.2211248,47.790768 13.0800242,47.5650071 12.797823,47.4239065 C12.5156219,47.3392461 12.2898609,47.3815763 12.1910905,47.5226769 Z M16.7627494,52.5458577 C16.5369885,52.7292884 16.6216489,53.1525902 16.9461802,53.4206813 C17.2707116,53.7452127 17.6799032,53.7875428 17.863334,53.5617819 C18.0467648,53.3783511 17.9621044,52.9550494 17.6799032,52.6869583 C17.369482,52.3624269 16.9461802,52.3200968 16.7627494,52.5458577 Z M15.1542028,50.4716791 C14.9284418,50.6127797 14.9284418,50.9796412 15.1542028,51.3041725 C15.3799637,51.6287039 15.7609353,51.7698045 15.9443661,51.6287039 C16.170127,51.4452731 16.170127,51.0784116 15.9443661,50.7538803 C15.7468252,50.4293489 15.3799637,50.2882483 15.1542028,50.4716791 Z" id="Shape"></path>
                    </g>
                </g>
            </g>
        </g>
    </g>
</svg>