<?xml version="1.0" encoding="UTF-8"?>
<svg width="71px" height="70px" viewBox="0 0 71 70" version="1.1" xmlns="http://www.w3.org/2000/svg" xmlns:xlink="http://www.w3.org/1999/xlink">
    <!-- Generator: Sketch 61.2 (89653) - https://sketch.com -->
    <title>Shape</title>
    <desc>Created with Sketch.</desc>
    <g id="Page-1" stroke="none" stroke-width="1" fill="none" fill-rule="evenodd">
        <g id="Desktop---Home-V1.5" transform="translate(-1205.000000, -2685.000000)">
            <g id="Logo-Wall" transform="translate(0.000000, 2650.000000)">
                <rect id="Rectangle" opacity="0.896600632" x="0" y="0" width="1440" height="140"></rect>
                <g id="Logos" transform="translate(165.000000, 35.000000)" fill="#FFFFFF" fill-rule="nonzero">
                    <g id="js" transform="translate(1040.200000, 0.000000)">
                        <path d="M0,0 L0,70 L70,70 L70,0 L0,0 Z M38.09375,54.59375 C38.09375,61.40625 34.09375,64.515625 28.265625,64.515625 C23,64.515625 19.953125,61.796875 18.390625,58.5 L23.75,55.265625 C24.78125,57.09375 25.71875,58.640625 27.984375,58.640625 C30.140625,58.640625 31.515625,57.796875 31.515625,54.5 L31.515625,32.140625 L38.09375,32.140625 L38.09375,54.59375 L38.09375,54.59375 Z M53.65625,64.515625 C47.546875,64.515625 43.59375,61.609375 41.671875,57.796875 L47.03125,54.703125 C48.4375,57 50.28125,58.703125 53.515625,58.703125 C56.234375,58.703125 57.984375,57.34375 57.984375,55.453125 C57.984375,53.203125 56.203125,52.40625 53.1875,51.078125 L51.546875,50.375 C46.796875,48.359375 43.65625,45.8125 43.65625,40.453125 C43.65625,35.515625 47.421875,31.765625 53.28125,31.765625 C57.46875,31.765625 60.46875,33.21875 62.625,37.03125 L57.5,40.3125 C56.375,38.296875 55.15625,37.5 53.265625,37.5 C51.34375,37.5 50.125,38.71875 50.125,40.3125 C50.125,42.28125 51.34375,43.078125 54.171875,44.3125 L55.8125,45.015625 C61.40625,47.40625 64.546875,49.859375 64.546875,55.359375 C64.546875,61.265625 59.890625,64.515625 53.65625,64.515625 L53.65625,64.515625 Z" id="Shape"></path>
                    </g>
                </g>
            </g>
        </g>
    </g>
</svg>