<?xml version="1.0" encoding="UTF-8"?>
<svg width="70px" height="43px" viewBox="0 0 70 43" version="1.1" xmlns="http://www.w3.org/2000/svg" xmlns:xlink="http://www.w3.org/1999/xlink">
    <!-- Generator: Sketch 61.2 (89653) - https://sketch.com -->
    <title>Shape</title>
    <desc>Created with Sketch.</desc>
    <g id="Page-1" stroke="none" stroke-width="1" fill="none" fill-rule="evenodd">
        <g id="Desktop---Home-V1.5" transform="translate(-734.000000, -2699.000000)">
            <g id="Logo-Wall" transform="translate(0.000000, 2650.000000)">
                <rect id="Rectangle" opacity="0.896600632" x="0" y="0" width="1440" height="140"></rect>
                <g id="Logos" transform="translate(165.000000, 35.000000)" fill="#FFFFFF" fill-rule="nonzero">
                    <g id="node" transform="translate(569.000000, 14.000000)">
                        <path d="M34.5953125,42.875 C34.365625,42.875 34.1359375,42.809375 33.928125,42.7 L31.828125,41.453125 C31.5109375,41.278125 31.6640625,41.2125 31.7734375,41.1796875 C32.1890625,41.0375 32.2765625,41.0046875 32.725,40.7421875 C32.76875,40.7203125 32.834375,40.73125 32.878125,40.753125 L34.496875,41.715625 C34.5515625,41.7484375 34.6390625,41.7484375 34.69375,41.715625 L41.015625,38.0625 C41.0703125,38.0296875 41.1140625,37.9640625 41.1140625,37.8875 L41.1140625,30.5921875 C41.1140625,30.515625 41.08125,30.45 41.015625,30.4171875 L34.69375,26.775 C34.6390625,26.7421875 34.5625,26.7421875 34.496875,26.775 L28.175,30.4171875 C28.109375,30.45 28.0765625,30.5265625 28.0765625,30.5921875 L28.0765625,37.8875 C28.0765625,37.953125 28.1203125,38.01875 28.175,38.0515625 L29.903125,39.046875 C30.84375,39.5171875 31.4234375,38.959375 31.4234375,38.4125 L31.4234375,31.2046875 C31.4234375,31.10625 31.5,31.01875 31.609375,31.01875 L32.4078125,31.01875 C32.50625,31.01875 32.59375,31.0953125 32.59375,31.2046875 L32.59375,38.4125 C32.59375,39.6703125 31.915625,40.38125 30.7234375,40.38125 C30.3625,40.38125 30.0671875,40.38125 29.26875,39.9875 L27.60625,39.0359375 C27.2015625,38.7953125 26.9390625,38.3578125 26.9390625,37.8875 L26.9390625,30.5921875 C26.9390625,30.121875 27.190625,29.6734375 27.60625,29.44375 L33.928125,25.790625 C34.3328125,25.5609375 34.8578125,25.5609375 35.2515625,25.790625 L41.5734375,29.44375 C41.978125,29.684375 42.240625,30.121875 42.240625,30.5921875 L42.240625,37.8875 C42.240625,38.3578125 41.9890625,38.80625 41.5734375,39.0359375 L35.2515625,42.6890625 C35.065625,42.809375 34.8359375,42.875 34.5953125,42.875 L34.5953125,42.875 Z M39.703125,35.678125 C39.703125,34.3109375 38.784375,33.95 36.8375,33.6875 C34.86875,33.425 34.671875,33.29375 34.671875,32.834375 C34.671875,32.4515625 34.8359375,31.9484375 36.290625,31.9484375 C37.5921875,31.9484375 38.0734375,32.2328125 38.2703125,33.1078125 C38.2921875,33.1953125 38.3578125,33.25 38.4453125,33.25 L39.265625,33.25 C39.3203125,33.25 39.3640625,33.228125 39.396875,33.1953125 C39.4296875,33.1515625 39.4515625,33.1078125 39.440625,33.053125 C39.309375,31.54375 38.3140625,30.84375 36.290625,30.84375 C34.4859375,30.84375 33.4140625,31.609375 33.4140625,32.878125 C33.4140625,34.2671875 34.4859375,34.6390625 36.2140625,34.8140625 C38.28125,35.021875 38.4453125,35.3171875 38.4453125,35.721875 C38.4453125,36.4328125 37.8765625,36.728125 36.5421875,36.728125 C34.86875,36.728125 34.496875,36.3125 34.3765625,35.48125 C34.365625,35.39375 34.2890625,35.328125 34.190625,35.328125 L33.3703125,35.328125 C33.271875,35.328125 33.184375,35.4046875 33.184375,35.5140625 C33.184375,36.575 33.7640625,37.84375 36.53125,37.84375 C38.5546875,37.84375 39.703125,37.05625 39.703125,35.678125 L39.703125,35.678125 Z M45.6640625,30.1984375 C45.6640625,30.865625 45.1171875,31.4125 44.45,31.4125 C43.7828125,31.4125 43.2359375,30.865625 43.2359375,30.1984375 C43.2359375,29.509375 43.8046875,28.984375 44.45,28.984375 C45.10625,28.9734375 45.6640625,29.509375 45.6640625,30.1984375 Z M45.4671875,30.1984375 C45.4671875,29.6296875 45.0078125,29.18125 44.4390625,29.18125 C43.88125,29.18125 43.421875,29.6296875 43.421875,30.1984375 C43.421875,30.7671875 43.88125,31.2265625 44.4390625,31.2265625 C45.0078125,31.215625 45.4671875,30.75625 45.4671875,30.1984375 Z M44.975,30.8765625 L44.690625,30.8765625 C44.6796875,30.8109375 44.6359375,30.4609375 44.6359375,30.45 C44.6140625,30.3734375 44.5921875,30.3296875 44.49375,30.3296875 L44.253125,30.3296875 L44.253125,30.8765625 L43.990625,30.8765625 L43.990625,29.509375 L44.4609375,29.509375 C44.625,29.509375 44.9421875,29.509375 44.9421875,29.8703125 C44.9421875,30.121875 44.778125,30.1765625 44.6796875,30.209375 C44.865625,30.2203125 44.8765625,30.340625 44.909375,30.515625 C44.9203125,30.625 44.9421875,30.8109375 44.975,30.8765625 L44.975,30.8765625 Z M44.66875,29.9140625 C44.66875,29.728125 44.5375,29.728125 44.471875,29.728125 L44.253125,29.728125 L44.253125,30.1109375 L44.4609375,30.1109375 C44.6359375,30.1109375 44.66875,29.990625 44.66875,29.9140625 L44.66875,29.9140625 Z M15.0171875,14.328125 C15.0171875,14.0328125 14.8640625,13.7703125 14.6125,13.628125 L7.9078125,9.7671875 C7.7984375,9.7015625 7.6671875,9.66875 7.5359375,9.6578125 L7.4703125,9.6578125 C7.3390625,9.6578125 7.21875,9.7015625 7.0984375,9.7671875 L0.4046875,13.628125 C0.153125,13.7703125 0,14.04375 0,14.328125 L0.0109375,24.71875 C0.0109375,24.8609375 0.0875,24.9921875 0.2078125,25.06875 C0.328125,25.1453125 0.48125,25.1453125 0.6125,25.06875 L4.59375,22.7828125 C4.8453125,22.6296875 4.9984375,22.3671875 4.9984375,22.0828125 L4.9984375,17.2265625 C4.9984375,16.9421875 5.1515625,16.66875 5.403125,16.5265625 L7.0984375,15.553125 C7.2296875,15.4765625 7.3609375,15.44375 7.503125,15.44375 C7.6453125,15.44375 7.7875,15.4765625 7.9078125,15.553125 L9.603125,16.5265625 C9.8546875,16.66875 10.0078125,16.9421875 10.0078125,17.2265625 L10.0078125,22.0828125 C10.0078125,22.3671875 10.1609375,22.640625 10.4125,22.7828125 L14.39375,25.06875 C14.5140625,25.1453125 14.678125,25.1453125 14.7984375,25.06875 C14.91875,25.003125 14.9953125,24.8609375 14.9953125,24.71875 L15.0171875,14.328125 Z M51.6796875,2.9859375 L51.6796875,22.2796875 C51.6796875,22.5640625 51.5265625,22.8375 51.275,22.9796875 L44.5703125,26.8515625 C44.31875,26.99375 44.0125,26.99375 43.7609375,26.8515625 L37.05625,22.9796875 C36.8046875,22.8375 36.6515625,22.5640625 36.6515625,22.2796875 L36.6515625,14.5359375 C36.6515625,14.2515625 36.8046875,13.978125 37.05625,13.8359375 L43.7609375,9.9640625 C44.0125,9.821875 44.31875,9.821875 44.5703125,9.9640625 L46.24375,10.9265625 C46.4296875,11.0359375 46.6703125,10.89375 46.6703125,10.6859375 L46.6703125,0.4046875 C46.6703125,0.0984375 46.9984375,-0.0984375 47.271875,0.0546875 L51.2640625,2.2859375 C51.515625,2.4171875 51.6796875,2.690625 51.6796875,2.9859375 Z M46.6484375,17.084375 C46.6484375,17.0078125 46.6046875,16.9421875 46.55,16.909375 L44.253125,15.575 C44.1875,15.5421875 44.1109375,15.5421875 44.0453125,15.575 L41.7484375,16.909375 C41.6828125,16.9421875 41.65,17.0078125 41.65,17.084375 L41.65,19.7421875 C41.65,19.81875 41.69375,19.884375 41.7484375,19.9171875 L44.0453125,21.240625 C44.1109375,21.2734375 44.1875,21.2734375 44.2421875,21.240625 L46.5390625,19.9171875 C46.6046875,19.884375 46.6375,19.81875 46.6375,19.7421875 L46.6375,17.084375 L46.6484375,17.084375 Z M69.5953125,17.0078125 C69.846875,16.865625 70,16.5921875 70,16.3078125 L70,14.4375 C70,14.153125 69.846875,13.8796875 69.5953125,13.7375 L62.934375,9.865625 C62.6828125,9.7234375 62.3765625,9.7234375 62.125,9.865625 L55.4203125,13.7375 C55.16875,13.8796875 55.015625,14.153125 55.015625,14.4375 L55.015625,22.18125 C55.015625,22.4765625 55.16875,22.7390625 55.4203125,22.88125 L62.08125,26.6765625 C62.321875,26.81875 62.628125,26.81875 62.8796875,26.6765625 L66.9046875,24.434375 C67.178125,24.28125 67.178125,23.8875 66.9046875,23.734375 L60.15625,19.8625 C60.025,19.7859375 59.9484375,19.6546875 59.9484375,19.5125 L59.9484375,17.084375 C59.9484375,16.9421875 60.025,16.8109375 60.15625,16.734375 L62.25625,15.5203125 C62.3765625,15.44375 62.540625,15.44375 62.6609375,15.5203125 L64.7609375,16.734375 C64.88125,16.8109375 64.96875,16.9421875 64.96875,17.084375 L64.96875,18.9875 C64.96875,19.29375 65.3078125,19.490625 65.58125,19.3375 L69.5953125,17.0078125 L69.5953125,17.0078125 Z M61.140625,17.390625 C61.096875,17.4234375 61.0640625,17.4671875 61.0640625,17.521875 L61.0640625,19.009375 C61.0640625,19.0640625 61.096875,19.11875 61.140625,19.140625 L62.43125,19.884375 C62.475,19.9171875 62.540625,19.9171875 62.584375,19.884375 L63.875,19.140625 C63.91875,19.1078125 63.9515625,19.0640625 63.9515625,19.009375 L63.9515625,17.521875 C63.9515625,17.4671875 63.91875,17.4125 63.875,17.390625 L62.584375,16.646875 C62.540625,16.6140625 62.475,16.6140625 62.43125,16.646875 L61.140625,17.390625 Z M33.3375,22.1484375 L33.3375,14.4484375 C33.3375,14.1640625 33.1625,13.890625 32.9109375,13.7484375 L26.228125,9.8984375 C25.9984375,9.7671875 25.68125,9.7453125 25.41875,9.8984375 L18.7359375,13.7484375 C18.484375,13.890625 18.309375,14.153125 18.309375,14.4484375 L18.309375,22.1484375 C18.309375,22.4546875 18.5171875,22.7171875 18.746875,22.8484375 L25.440625,26.6984375 C25.703125,26.8515625 26.009375,26.840625 26.25,26.6984375 L32.921875,22.8484375 C33.11875,22.7390625 33.2609375,22.553125 33.315625,22.334375 C33.3265625,22.2796875 33.3375,22.2140625 33.3375,22.1484375 Z M25.2109375,8.4875 L25.1234375,8.5421875 L25.24375,8.5421875 L25.2109375,8.4875 L25.2109375,8.4875 Z M33.5453125,22.728125 L33.5015625,22.6515625 L33.5015625,22.75 L33.5453125,22.728125 Z" id="Shape"></path>
                    </g>
                </g>
            </g>
        </g>
    </g>
</svg>