<?xml version="1.0" encoding="UTF-8"?>
<svg width="71px" height="28px" viewBox="0 0 71 28" version="1.1" xmlns="http://www.w3.org/2000/svg" xmlns:xlink="http://www.w3.org/1999/xlink">
    <!-- Generator: Sketch 61.2 (89653) - https://sketch.com -->
    <title>Shape</title>
    <desc>Created with Sketch.</desc>
    <g id="Page-1" stroke="none" stroke-width="1" fill="none" fill-rule="evenodd">
        <g id="Desktop---Home-V1.5" transform="translate(-616.000000, -2706.000000)">
            <g id="Logo-Wall" transform="translate(0.000000, 2650.000000)">
                <rect id="Rectangle" opacity="0.896600632" x="0" y="0" width="1440" height="140"></rect>
                <g id="Logos" transform="translate(165.000000, 35.000000)" fill="#FFFFFF" fill-rule="nonzero">
                    <g id="npm" transform="translate(451.200000, 21.000000)">
                        <path d="M35,15.5555556 L31.1111111,15.5555556 L31.1111111,7.77777778 L35,7.77777778 L35,15.5555556 Z M70,0 L70,23.3333333 L35,23.3333333 L35,27.2222222 L19.4444444,27.2222222 L19.4444444,23.3333333 L0,23.3333333 L0,0 L70,0 Z M19.4444444,3.88888889 L3.88888889,3.88888889 L3.88888889,19.4444444 L11.6666667,19.4444444 L11.6666667,7.77777778 L15.5555556,7.77777778 L15.5555556,19.4444444 L19.4444444,19.4444444 L19.4444444,3.88888889 Z M38.8888889,3.88888889 L23.3333333,3.88888889 L23.3333333,23.3333333 L31.1111111,23.3333333 L31.1111111,19.4444444 L38.8888889,19.4444444 L38.8888889,3.88888889 Z M66.1111111,3.88888889 L42.7777778,3.88888889 L42.7777778,19.4444444 L50.5555556,19.4444444 L50.5555556,7.77777778 L54.4444444,7.77777778 L54.4444444,19.4444444 L58.3333333,19.4444444 L58.3333333,7.77777778 L62.2222222,7.77777778 L62.2222222,19.4444444 L66.1111111,19.4444444 L66.1111111,3.88888889 Z" id="Shape"></path>
                    </g>
                </g>
            </g>
        </g>
    </g>
</svg>