<?xml version="1.0" encoding="UTF-8"?>
<svg width="71px" height="62px" viewBox="0 0 71 62" version="1.1" xmlns="http://www.w3.org/2000/svg" xmlns:xlink="http://www.w3.org/1999/xlink">
    <!-- Generator: Sketch 61.2 (89653) - https://sketch.com -->
    <title>Shape</title>
    <desc>Created with Sketch.</desc>
    <g id="Page-1" stroke="none" stroke-width="1" fill="none" fill-rule="evenodd">
        <g id="Desktop---Home-V1.5" transform="translate(-969.000000, -2689.000000)">
            <g id="Logo-Wall" transform="translate(0.000000, 2650.000000)">
                <rect id="Rectangle" opacity="0.896600632" x="0" y="0" width="1440" height="140"></rect>
                <g id="Logos" transform="translate(165.000000, 35.000000)" fill="#FFFFFF" fill-rule="nonzero">
                    <g id="react" transform="translate(804.600000, 4.000000)">
                        <path d="M57.1757812,19.8515625 C56.4375,19.6054687 55.6992187,19.3730469 54.9609375,19.1542969 C55.0839844,18.6484375 55.1933594,18.1425781 55.3027344,17.6367188 C56.984375,9.48828125 55.8769531,2.93945313 52.1445312,0.779296875 C48.5488281,-1.28515625 42.6835938,0.861328125 36.75,6.02929687 C36.1621094,6.53515625 35.5878906,7.06835937 35.0410156,7.6015625 C34.671875,7.24609375 34.2890625,6.890625 33.90625,6.54882812 C27.6855469,1.02539062 21.4511719,-1.29882813 17.71875,0.875 C14.1367187,2.953125 13.0703125,9.11914062 14.5742187,16.8300781 C14.7246094,17.5957031 14.8886719,18.3476562 15.0800781,19.1132812 C14.2050781,19.359375 13.34375,19.6328125 12.5371094,19.9199219 C5.23632812,22.4492188 0,26.4414062 0,30.5703125 C0,34.8359375 5.578125,39.1152344 13.1660156,41.7128906 C13.78125,41.9179688 14.3964844,42.1230469 15.0253906,42.3007813 C14.8203125,43.1210938 14.6425781,43.9277344 14.4785156,44.7617188 C13.0429687,52.3496094 14.1640625,58.3652344 17.7460937,60.4296875 C21.4375,62.5625 27.6445312,60.375 33.6875,55.0839844 C34.1660156,54.6601562 34.6445312,54.2226562 35.1230469,53.7578125 C35.7246094,54.3457031 36.3535156,54.90625 36.9824219,55.453125 C42.8339844,60.484375 48.6171875,62.5214844 52.1855469,60.4570312 C55.8769531,58.3242188 57.0800781,51.8574219 55.5214844,43.9824219 C55.3984375,43.3808594 55.2617187,42.765625 55.1113281,42.1367188 C55.5488281,42.0136719 55.9726562,41.8769531 56.3964844,41.7402344 C64.2851562,39.1289062 70,34.9042969 70,30.5703125 C70,26.4277344 64.6132812,22.4082031 57.1757812,19.8515625 Z M38.6777344,8.24414062 C43.7636719,3.81445313 48.5078125,2.078125 50.6679688,3.32226563 C52.9785156,4.6484375 53.8671875,10.0078125 52.4179688,17.0488281 C52.3222656,17.5136719 52.2265625,17.9648437 52.1035156,18.4160156 C49.0683594,17.7324219 45.9921875,17.2402344 42.9023438,16.9667969 C41.125,14.4238281 39.1835938,11.9902344 37.078125,9.70703125 C37.6113281,9.20117188 38.1308594,8.72265625 38.6777344,8.24414062 L38.6777344,8.24414062 Z M20.9042969,34.0976563 C21.5332031,35.3007813 22.1757812,36.4902344 22.859375,37.6660156 C23.5566406,38.8554688 24.2675781,40.0449219 25.0195312,41.2070313 C22.8867188,40.9746094 20.7675781,40.6328125 18.6757812,40.1816406 C19.2773438,38.2128906 20.0292969,36.1757813 20.9042969,34.0976563 L20.9042969,34.0976563 Z M20.9042969,27.1796875 C20.0429688,25.1425781 19.3183594,23.1464844 18.7167969,21.21875 C20.6855469,20.78125 22.7773438,20.4257813 24.9511719,20.1523438 C24.2265625,21.2871094 23.515625,22.4492188 22.8457031,23.625 C22.1757812,24.7871094 21.5195312,25.9765625 20.9042969,27.1796875 Z M22.4628906,30.6386719 C23.3652344,28.7519531 24.3496094,26.90625 25.3886719,25.0878906 C26.4277344,23.2695312 27.5488281,21.5058594 28.7246094,19.7695313 C30.7753906,19.6191406 32.8671875,19.5371094 35,19.5371094 C37.1328125,19.5371094 39.2382812,19.6191406 41.2753906,19.7695313 C42.4375,21.4921875 43.5449219,23.2558594 44.5976562,25.0605469 C45.6503906,26.8652344 46.6347656,28.7109375 47.5644531,30.5839844 C46.6484375,32.4707031 45.6640625,34.3300781 44.6113281,36.1621094 C43.5722656,37.9804688 42.4648438,39.7441406 41.3027344,41.4941406 C39.265625,41.6445313 37.1464844,41.7128906 35,41.7128906 C32.8535156,41.7128906 30.7753906,41.6445313 28.765625,41.5214844 C27.5761719,39.7851563 26.4550781,38.0078125 25.4023438,36.1894531 C24.3496094,34.3710938 23.3789062,32.5253906 22.4628906,30.6386719 Z M47.1542969,37.6386719 C47.8515625,36.4355469 48.5078125,35.21875 49.1503906,33.9882813 C50.0253906,35.9707031 50.7910156,37.9804688 51.4609375,40.0449219 C49.3417969,40.5234375 47.1953125,40.8925781 45.0351562,41.1386719 C45.7734375,39.9902344 46.4707031,38.8144531 47.1542969,37.6386719 Z M49.1230469,27.1796875 C48.4804688,25.9765625 47.8242188,24.7734375 47.140625,23.5976562 C46.4707031,22.4355469 45.7734375,21.2871094 45.0488281,20.1523438 C47.25,20.4257813 49.3554688,20.7949219 51.3242188,21.2460938 C50.6953125,23.2695313 49.9570313,25.2382812 49.1230469,27.1796875 L49.1230469,27.1796875 Z M35.0273438,11.7988281 C36.4628906,13.3574219 37.8164062,14.9980469 39.0742188,16.6933594 C36.3671875,16.5703125 33.6464844,16.5703125 30.9394531,16.6933594 C32.2792969,14.9296875 33.6601562,13.2890625 35.0273438,11.7988281 Z M19.1679687,3.41796875 C21.4648438,2.078125 26.5644531,3.9921875 31.9375,8.75 C32.2792969,9.05078125 32.6210938,9.37890625 32.9765625,9.70703125 C30.8574219,11.9902344 28.9023438,14.4238281 27.1113281,16.9667969 C24.0214844,17.2402344 20.9589844,17.71875 17.9238281,18.3886719 C17.7460937,17.6914062 17.5957031,16.9804687 17.4453125,16.2695312 C16.1601562,9.65234375 17.0078125,4.66210937 19.1679687,3.41796875 L19.1679687,3.41796875 Z M15.8183594,39.4570313 C15.2441406,39.2929687 14.6835937,39.1152344 14.1230469,38.9238281 C11.2109375,38.0078125 7.90234375,36.5585938 5.50976562,34.6582031 C4.12890625,33.7011719 3.19921875,32.2246094 2.93945312,30.5703125 C2.93945312,28.0683594 7.25976562,24.8691406 13.4941406,22.6953125 C14.2734375,22.421875 15.0664062,22.1757813 15.859375,21.9433594 C16.7890625,24.9101562 17.9101562,27.8222656 19.2089844,30.6386719 C17.8964844,33.4960938 16.7617188,36.4492188 15.8183594,39.4570313 L15.8183594,39.4570313 Z M31.7597656,52.8554688 C29.5039062,54.9199219 26.8925781,56.5605469 24.0488281,57.6816406 C22.53125,58.40625 20.78125,58.4746094 19.2226562,57.859375 C17.0488281,56.6015625 16.1464844,51.7753906 17.3769531,45.28125 C17.5273437,44.515625 17.6914062,43.75 17.8828125,42.9980469 C20.9453125,43.6542969 24.0351562,44.1054688 27.1660156,44.3378906 C28.9707031,46.8945313 30.953125,49.3417969 33.0722656,51.6386719 C32.6347656,52.0625 32.1972656,52.4726563 31.7597656,52.8554688 Z M35.109375,49.5332031 C33.7148437,48.0292969 32.3203125,46.3613281 30.9667969,44.5703125 C32.2792969,44.625 33.6328125,44.6523438 35,44.6523438 C36.4082031,44.6523438 37.7890625,44.625 39.15625,44.5566406 C37.8984375,46.2929688 36.5449219,47.9472656 35.109375,49.5332031 L35.109375,49.5332031 Z M52.9785156,53.6347656 C52.8554688,55.3027344 52.0351563,56.8613281 50.7226562,57.9140625 C48.5488281,59.171875 43.9140625,57.53125 38.9101562,53.2382812 C38.3359375,52.7460938 37.7617187,52.2128906 37.1738281,51.6660156 C39.265625,49.3554688 41.1933594,46.9082031 42.9433594,44.3378906 C46.0742187,44.078125 49.1914062,43.5996094 52.2675781,42.9023438 C52.4042969,43.4628906 52.5273437,44.0234375 52.6367188,44.5703125 C53.3066406,47.5234375 53.4160156,50.5996094 52.9785156,53.6347656 L52.9785156,53.6347656 Z M55.4667969,38.9375 C55.0839844,39.0605469 54.7011719,39.1835938 54.3046875,39.2929688 C53.3476562,36.3125 52.171875,33.4003906 50.8183594,30.5703125 C52.1308594,27.78125 53.2382812,24.9101562 54.1679687,21.9707031 C54.8789062,22.1757812 55.5625,22.3945313 56.21875,22.6132812 C62.5898438,24.8007812 67.0605469,28.0546875 67.0605469,30.5429688 C67.0605469,33.2226563 62.2890625,36.6816406 55.4667969,38.9375 Z M35,24.3632813 C38.4589844,24.3632813 41.2617188,27.1660156 41.2617188,30.625 C41.2617188,34.0839844 38.4589844,36.8867188 35,36.8867188 C31.5410156,36.8867188 28.7382812,34.0839844 28.7382812,30.625 C28.7382812,27.1660156 31.5410156,24.3632813 35,24.3632813" id="Shape"></path>
                    </g>
                </g>
            </g>
        </g>
    </g>
</svg>