<?xml version="1.0" encoding="UTF-8"?>
<svg width="71px" height="53px" viewBox="0 0 71 53" version="1.1" xmlns="http://www.w3.org/2000/svg" xmlns:xlink="http://www.w3.org/1999/xlink">
    <!-- Generator: Sketch 61.2 (89653) - https://sketch.com -->
    <title>Shape</title>
    <desc>Created with Sketch.</desc>
    <g id="Page-1" stroke="none" stroke-width="1" fill="none" fill-rule="evenodd">
        <g id="Desktop---Home-V1.5" transform="translate(-380.000000, -2694.000000)">
            <g id="Logo-Wall" transform="translate(0.000000, 2650.000000)">
                <rect id="Rectangle"  opacity="0.896600632" x="0" y="0" width="1440" height="140"></rect>
                <g id="Logos" transform="translate(165.000000, 35.000000)" fill="#FFFFFF" fill-rule="nonzero">
                    <g id="sass" transform="translate(215.600000, 9.000000)">
                        <path d="M60.1978193,30.1915888 C57.7554517,30.2024922 55.6401869,30.7912773 53.8738318,31.6635514 C53.2305296,30.3660436 52.5654206,29.2320872 52.4563863,28.3816199 C52.3255452,27.3894081 52.1838006,26.8006231 52.3364486,25.623053 C52.4890966,24.4454829 53.1760125,22.7772586 53.165109,22.6573209 C53.1542056,22.5373832 53.0124611,21.9376947 51.605919,21.9267913 C50.1993769,21.9158879 48.9890966,22.1993769 48.847352,22.5700935 C48.7056075,22.94081 48.4330218,23.7803738 48.2694704,24.652648 C48.0186916,25.9283489 45.4563863,30.4859813 44.0062305,32.8629283 C43.5264798,31.9361371 43.123053,31.1183801 43.0358255,30.4641745 C42.9049844,29.4719626 42.7632399,28.8831776 42.9158879,27.7056075 C43.0685358,26.5280374 43.7554517,24.8598131 43.7445483,24.7398754 C43.7336449,24.6199377 43.5919003,24.0202492 42.1853583,24.0093458 C40.7788162,23.9984424 39.5685358,24.2819315 39.4267913,24.652648 C39.2850467,25.0233645 39.1323988,25.8956386 38.8489097,26.7352025 C38.5654206,27.5747664 35.152648,35.1635514 34.258567,37.1370717 C33.8006231,38.1401869 33.4080997,38.9470405 33.1246106,39.4922118 C32.8411215,40.0373832 33.1028037,39.5249221 33.0809969,39.5903427 C32.8411215,40.05919 32.6993769,40.3208723 32.6993769,40.3208723 L32.6993769,40.3317757 C32.5140187,40.6806854 32.3068536,40.9968847 32.2087227,40.9968847 C32.1433022,40.9968847 32.0015576,40.0809969 32.241433,38.8271028 C32.7538941,36.1884735 33.9641745,32.088785 33.953271,31.9470405 C33.9423676,31.8707165 34.182243,31.1619938 33.1573209,30.7803738 C32.165109,30.4205607 31.805296,31.0202492 31.7180685,31.0202492 C31.6308411,31.0202492 31.5654206,31.2383178 31.5654206,31.2383178 C31.5654206,31.2383178 32.6666667,26.6152648 29.4501558,26.6152648 C27.4439252,26.6152648 24.652648,28.817757 23.2788162,30.8130841 C22.4174455,31.2819315 20.5529595,32.2959502 18.5903427,33.3753894 C17.8380062,33.7897196 17.0638629,34.2149533 16.3333333,34.6183801 C16.2788162,34.5638629 16.2352025,34.5093458 16.1806854,34.4548287 C12.2772586,30.2897196 5.07009346,27.3457944 5.37538941,21.7523364 C5.48442368,19.7133956 6.19314642,14.3598131 19.2336449,7.86137072 C29.9190031,2.54049844 38.4672897,4.00155763 39.9392523,7.25077882 C42.0545171,11.8847352 35.3707165,20.5093458 24.271028,21.7523364 C20.0404984,22.2211838 17.8161994,20.5856698 17.2601246,19.9750779 C16.682243,19.3317757 16.5950156,19.2990654 16.376947,19.4190031 C16.017134,19.6152648 16.2461059,20.182243 16.376947,20.5202492 C16.7040498,21.3816199 18.0669782,22.9080997 20.3894081,23.6713396 C22.4283489,24.3364486 27.3894081,24.7071651 33.3862928,22.3847352 C40.1246106,19.7897196 45.3691589,12.5607477 43.8317757,6.50934579 C42.2616822,0.359813084 32.0669782,-1.65732087 22.4174455,1.76635514 C16.6713396,3.80529595 10.4563863,7.01090343 5.98598131,11.1869159 C0.676012461,16.1588785 -0.174454829,20.4875389 0.174454829,22.2975078 C1.41744548,28.7196262 10.271028,32.9065421 13.8146417,36.0031153 C13.6401869,36.1012461 13.4766355,36.1884735 13.3239875,36.2757009 C11.546729,37.1588785 4.79750779,40.6915888 3.10747664,44.4205607 C1.19937695,48.6510903 3.42367601,51.682243 4.8847352,52.0965732 C9.4423676,53.3613707 14.1090343,51.0825545 16.6168224,47.3426791 C19.1246106,43.6028037 18.8193146,38.7180685 17.6635514,36.4937695 C17.652648,36.4610592 17.6308411,36.4392523 17.6199377,36.4065421 C18.0778816,36.1339564 18.546729,35.8613707 19.0155763,35.588785 C19.9205607,35.0545171 20.8037383,34.5638629 21.5778816,34.1386293 C21.1417445,35.3161994 20.8255452,36.7336449 20.6619938,38.7834891 C20.4657321,41.182243 21.4579439,44.2897196 22.7445483,45.5109034 C23.3115265,46.0451713 23.9984424,46.0560748 24.423676,46.0560748 C25.9283489,46.0560748 26.6043614,44.8130841 27.3566978,43.3302181 C28.2834891,41.5202492 29.1012461,39.4158879 29.1012461,39.4158879 C29.1012461,39.4158879 28.076324,45.1074766 30.8785047,45.1074766 C31.9034268,45.1074766 32.9283489,43.788162 33.3862928,43.1121495 L33.3862928,43.123053 C33.3862928,43.123053 33.4080997,43.0794393 33.4626168,42.9922118 C33.5716511,42.8286604 33.6261682,42.7305296 33.6261682,42.7305296 L33.6261682,42.6978193 C34.0404984,41.9890966 34.9454829,40.364486 36.3084112,37.682243 C38.0747664,34.2149533 39.7647975,29.8862928 39.7647975,29.8862928 C39.7647975,29.8862928 39.9174455,30.9439252 40.44081,32.6993769 C40.7461059,33.7352025 41.3894081,34.8691589 41.9018692,35.970405 C41.4875389,36.5373832 41.2367601,36.864486 41.2367601,36.864486 C41.2367601,36.864486 41.2367601,36.8753894 41.2476636,36.8862928 C40.9205607,37.3224299 40.5498442,37.7912773 40.1682243,38.2492212 C38.7725857,39.9065421 37.1152648,41.8037383 36.8971963,42.3489097 C36.635514,42.9922118 36.7009346,43.4719626 37.2024922,43.8426791 C37.5732087,44.1261682 38.2274143,44.1697819 38.9143302,44.1152648 C40.1682243,44.0280374 41.0514019,43.7227414 41.4766355,43.5264798 C42.152648,43.2866044 42.9376947,42.9049844 43.6791277,42.3707165 C45.0420561,41.3676012 45.8707165,39.9283489 45.7943925,38.0311526 C45.7507788,36.9844237 45.4127726,35.9376947 44.9984424,34.9563863 C45.1183801,34.7819315 45.2492212,34.5965732 45.3691589,34.411215 C47.5280374,31.2601246 49.1962617,27.8037383 49.1962617,27.8037383 C49.1962617,27.8037383 49.3489097,28.8613707 49.8722741,30.6168224 C50.1339564,31.5 50.6464174,32.470405 51.1152648,33.4190031 C49.0872274,35.0654206 47.8333333,36.9735202 47.3971963,38.2274143 C46.5903427,40.5498442 47.2227414,41.5965732 48.411215,41.8364486 C48.9454829,41.9454829 49.7087227,41.694704 50.2757009,41.4548287 C50.9844237,41.2149533 51.834891,40.8333333 52.6308411,40.2445483 C53.9937695,39.241433 55.3130841,37.834891 55.2258567,35.9267913 C55.1931464,35.0654206 54.953271,34.2040498 54.6370717,33.3753894 C56.3489097,32.6557632 58.5732087,32.2632399 61.4080997,32.5903427 C67.4813084,33.2990654 68.6697819,37.0934579 68.44081,38.6744548 C68.211838,40.2663551 66.9361371,41.1386293 66.5109034,41.4003115 C66.0856698,41.6619938 65.9548287,41.7601246 65.9875389,41.9563863 C66.0420561,42.2398754 66.2383178,42.228972 66.5981308,42.1635514 C67.0996885,42.076324 69.7819315,40.876947 69.9018692,37.9439252 C70.076324,34.2367601 66.5109034,30.1588785 60.1978193,30.1915888 L60.1978193,30.1915888 Z M13.3894081,45.9688474 C11.3831776,48.1604361 8.57009346,48.9890966 7.35981308,48.2912773 C6.0623053,47.5389408 6.57476636,44.3115265 9.04984424,41.9781931 C10.5545171,40.5607477 12.4953271,39.2523364 13.7819315,38.4454829 C14.076324,38.271028 14.5015576,38.0093458 15.0249221,37.6931464 C15.1121495,37.6386293 15.1557632,37.6168224 15.1557632,37.6168224 C15.2538941,37.5514019 15.3629283,37.4968847 15.4719626,37.4314642 C16.376947,40.7461059 15.5046729,43.6682243 13.3894081,45.9688474 L13.3894081,45.9688474 Z M28.0436137,36.0031153 C27.3457944,37.7149533 25.8738318,42.076324 24.9797508,41.847352 C24.2165109,41.6510903 23.7476636,38.3255452 24.8271028,35.0545171 C25.3722741,33.4080997 26.5280374,31.4454829 27.2149533,30.682243 C28.3161994,29.4501558 29.5264798,29.0576324 29.8099688,29.5482866 C30.1915888,30.1915888 28.4797508,34.9345794 28.0436137,36.0031153 Z M40.1464174,41.7819315 C39.8520249,41.9345794 39.5794393,42.0327103 39.4485981,41.9563863 C39.3504673,41.9018692 39.5685358,41.694704 39.5685358,41.694704 C39.5685358,41.694704 41.0841121,40.0700935 41.6838006,39.3286604 C42.0327103,38.8925234 42.4361371,38.3800623 42.8722741,37.8130841 C42.8722741,37.8676012 42.8831776,37.9221184 42.8831776,37.9875389 C42.8722741,39.9392523 40.9968847,41.258567 40.1464174,41.7819315 L40.1464174,41.7819315 Z M49.4797508,39.6557632 C49.2616822,39.5031153 49.2943925,38.9906542 50.0249221,37.3987539 C50.3084112,36.7772586 50.9626168,35.7305296 52.0965732,34.7274143 C52.2274143,35.1417445 52.3037383,35.5342679 52.3037383,35.9049844 C52.2928349,38.3582555 50.5373832,39.2741433 49.4797508,39.6557632 Z" id="Shape"></path>
                    </g>
                </g>
            </g>
        </g>
    </g>
</svg>